# xmcd
#
# Track frame offsets: 
#        182
#        24660
#        43137
#        61190
#        82850
#        106275
#        126222
#        147060
#        167865
#        186700
#        203340
#
# Disc length: 3029 seconds
#
# Revision: 1
# Processed by: cddbd v1.5.2PL0 Copyright (c) Steve Scherf et al.
# Submitted via: ExactAudioCopyFreeDBPlugin 1.0
#
DISCID=930bd30b
DTITLE=Garland Green - Garland Green
DYEAR=1983
DGENRE=Soul
TTITLE0=Tryin' To Hold On
TTITLE1=You Make Me Feel (So Good)
TTITLE2=Don't Tell Me, Let Me Guess
TTITLE3=Always
TTITLE4=Nobody Ever Came Close
TTITLE5=System
TTITLE6=Love's Calling
TTITLE7=These Arms
TTITLE8=Got It At Home
TTITLE9=Color My World
TTITLE10=Keep It Simple
EXTD=
EXTT0=
EXTT1=
EXTT2=
EXTT3=
EXTT4=
EXTT5=
EXTT6=
EXTT7=
EXTT8=
EXTT9=
EXTT10=
PLAYORDER=
